<?xml version="1.0" encoding="utf-8"?>
<!-- Generator: Adobe Illustrator 19.0.0, SVG Export Plug-In . SVG Version: 6.00 Build 0)  -->
<svg version="1.1" xmlns="http://www.w3.org/2000/svg" xmlns:xlink="http://www.w3.org/1999/xlink" x="0px" y="0px"
	 viewBox="0 0 1400 600" style="enable-background:new 0 0 1400 600;" xml:space="preserve">
<style type="text/css">
	.st0{fill:#BFBFBF;}
	.st1{fill:#E5E5E5;}
	.st2{fill:#D9D9D9;}
	.st3{fill:none;}
	.st4{font-family:'Akrobat-Black';}
	.st5{font-size:44px;}
	.st6{fill:none;stroke:#FF0000;stroke-width:5;stroke-miterlimit:10;}
</style>
<g id="Layer_2">
	<g id="XMLID_5_">
		<polygon id="XMLID_6_" class="st0" points="600.8,427 400.8,527 400.8,327 600.8,227 		"/>
		<polygon id="XMLID_7_" class="st1" points="600.8,227 400.8,327 200.8,227 400.8,127 		"/>
		<polygon id="XMLID_3_" class="st2" points="400.8,527 200.8,427 200.8,227 400.8,327 		"/>
	</g>
</g>
<g id="Layer_9">
	<polygon id="XMLID_11_" class="st2" points="1000,527 826.8,427 826.8,228.3 1000,328.3 	"/>
	<polygon id="XMLID_10_" class="st0" points="1173.2,427 1000,527 1000,328.3 1173.2,228.3 	"/>
	<polygon id="XMLID_9_" class="st1" points="999.9,328.2 826.7,228.2 998.9,128.9 1172.1,228.9 	"/>
</g>
<g id="Layer_5">
	<rect id="XMLID_4_" x="729.1" y="78.1" class="st3" width="539.7" height="48.7"/>
	<text id="XMLID_8_" transform="matrix(1 0 0 1 749.9781 110.0044)" class="st4 st5">TRUE ISOMETRIC PROJECTION</text>
	<rect id="XMLID_14_" x="159.6" y="78.1" class="st3" width="481.5" height="48.7"/>
	<text id="XMLID_13_" transform="matrix(1 0 0 1 174.3194 110.0044)" class="st4 st5">2:1 ISOMETRIC PROJECTION</text>
	<rect id="XMLID_20_" x="359.2" y="470.6" class="st3" width="481.5" height="48.7"/>
	<text id="XMLID_19_" transform="matrix(1 0 0 1 550.1625 502.4863)" class="st4 st5">26.57°</text>
	<rect id="XMLID_23_" x="929.2" y="470.6" class="st3" width="481.5" height="48.7"/>
	<text id="XMLID_22_" transform="matrix(1 0 0 1 1142.8441 502.4863)" class="st4 st5">30°</text>
</g>
<g id="Layer_6">
	<line id="XMLID_15_" class="st6" x1="401" y1="526.5" x2="694" y2="526.5"/>
	<line id="XMLID_16_" class="st6" x1="400.9" y1="527" x2="663" y2="396"/>
	<line id="XMLID_17_" class="st6" x1="1000" y1="526.5" x2="1293" y2="526.5"/>
	<line id="XMLID_18_" class="st6" x1="1000" y1="527" x2="1253.7" y2="380.5"/>
</g>
</svg>
