<?xml version="1.0" encoding="utf-8"?>
<!-- Generator: Adobe Illustrator 19.0.0, SVG Export Plug-In . SVG Version: 6.00 Build 0)  -->
<svg version="1.1" xmlns="http://www.w3.org/2000/svg" xmlns:xlink="http://www.w3.org/1999/xlink" x="0px" y="0px"
	 viewBox="0 0 1400 600" style="enable-background:new 0 0 1400 600;" xml:space="preserve">
<style type="text/css">
	.st0{fill:#BFBFBF;}
	.st1{fill:#E5E5E5;}
	.st2{fill:#D9D9D9;}
	.st3{fill:none;stroke:#FF0000;stroke-width:5;stroke-miterlimit:10;}
	.st4{display:none;}
</style>
<g id="Layer_2">
	<g id="XMLID_5_">
		<polygon id="XMLID_6_" class="st0" points="600.8,427 400.8,527 400.8,327 600.8,227 		"/>
		<polygon id="XMLID_7_" class="st1" points="600.8,227 400.8,327 200.8,227 400.8,127 		"/>
		<polygon id="XMLID_3_" class="st2" points="400.8,527 200.8,427 200.8,227 400.8,327 		"/>
	</g>
</g>
<g id="Layer_9">
	<polygon id="XMLID_11_" class="st2" points="1000,527 826.8,427 826.8,228.3 1000,328.3 	"/>
	<polygon id="XMLID_10_" class="st0" points="1173.2,427 1000,527 1000,328.3 1173.2,228.3 	"/>
	<polygon id="XMLID_9_" class="st1" points="999.9,328.2 826.7,228.2 998.9,128.9 1172.1,228.9 	"/>
</g>
<g id="Layer_5">
	<g id="XMLID_13_">
		<path id="XMLID_14_" d="M771.1,85.1h-6V110h-6.4V85.1h-6v-5.9h18.5V85.1z"/>
		<path id="XMLID_99_" d="M782.5,99.7h-2.2V110h-6.2V79.2h8.9c6.1,0,9.7,3.8,9.7,10.3c0,4.2-1.5,7.3-4.3,8.9l5.8,11.7h-6.8
			L782.5,99.7z M780.3,93.7h2.6c2.2,0,3.4-1.5,3.4-4.3c0-2.8-1.2-4.3-3.4-4.3h-2.6V93.7z"/>
		<path id="XMLID_102_" d="M796.7,100.1V79.2h6.5v20.9c0,2.8,1.1,4.4,3.3,4.4s3.3-1.5,3.3-4.4V79.2h6.5v20.9
			c0,6.5-3.7,10.4-9.8,10.4S796.7,106.6,796.7,100.1z"/>
		<path id="XMLID_104_" d="M837.6,104.1v5.9h-16.3V79.2h15.9v5.9h-9.6v6.4h8.8v5.7h-8.8v6.8H837.6z"/>
		<path id="XMLID_106_" d="M856.9,79.2V110h-6.2V79.2H856.9z"/>
		<path id="XMLID_108_" d="M860.4,101h6.4c0,2.5,1.2,3.5,3.2,3.5c2.1,0,3.1-1.2,3.1-2.7c0-5.1-12.1-5.7-12.1-15.1
			c0-4.7,3.3-8.1,9-8.1s9.1,3.4,9.1,9.1h-6.4c0-2-0.9-3-2.7-3c-1.6,0-2.6,0.9-2.6,2.3c0,4.8,12.2,5.1,12.2,15c0,5.1-3.6,8.8-9.7,8.8
			C864.1,110.6,860.4,107.2,860.4,101z"/>
		<path id="XMLID_110_" d="M882.5,100V89.2c0-6.6,3.7-10.5,10-10.5s10,3.9,10,10.5V100c0,6.6-3.7,10.5-10,10.5
			S882.5,106.6,882.5,100z M896,100V89.2c0-2.9-1.2-4.4-3.5-4.4s-3.5,1.5-3.5,4.4V100c0,2.9,1.2,4.4,3.5,4.4S896,102.9,896,100z"/>
		<path id="XMLID_113_" d="M933.6,79.2V110h-6.1v-7.6c0.2-3.7,0.3-7.5,0.5-11.2l-0.2-0.1l-2.8,8.1l-1.5,4.2h-6.2l-1.5-4.2l-2.8-8.1
			l-0.2,0.1c0.1,3.7,0.3,7.5,0.4,11.2v7.6h-6.1V79.2h6.3l4.8,11.7c0.6,1.5,1.7,4.2,2,5.4h0.2c0.4-1.1,1.4-3.8,2-5.4l4.8-11.7H933.6z
			"/>
		<path id="XMLID_115_" d="M955.3,104.1v5.9H939V79.2h15.9v5.9h-9.6v6.4h8.8v5.7h-8.8v6.8H955.3z"/>
		<path id="XMLID_117_" d="M976,85.1h-6V110h-6.4V85.1h-6v-5.9H976V85.1z"/>
		<path id="XMLID_119_" d="M987.4,99.7h-2.2V110H979V79.2h8.9c6.1,0,9.7,3.8,9.7,10.3c0,4.2-1.5,7.3-4.3,8.9l5.8,11.7h-6.8
			L987.4,99.7z M985.2,93.7h2.6c2.2,0,3.4-1.5,3.4-4.3c0-2.8-1.2-4.3-3.4-4.3h-2.6V93.7z"/>
		<path id="XMLID_122_" d="M1008.4,79.2V110h-6.2V79.2H1008.4z"/>
		<path id="XMLID_124_" d="M1012.9,100.6v-12c0-6.5,3.5-10,9.5-10c6.2,0,9.6,3.5,9.8,10h-6.2c-0.2-2.8-1.2-4-3.6-4c-1.9,0-3,1.2-3,4
			v12c0,2.6,1.1,3.9,3,3.9c2.4,0,3.5-1.1,3.7-3.9h6.2c-0.1,6.5-3.7,9.9-9.9,9.9C1016.5,110.5,1012.9,107.1,1012.9,100.6z"/>
		<path id="XMLID_126_" d="M1063.9,89.7c0,6.6-3.8,10.4-10.2,10.4h-2.7v9.9h-6.2V79.2h8.9C1060.1,79.2,1063.9,83.1,1063.9,89.7z
			 M1057.5,89.7c0-3-1.3-4.5-3.8-4.5h-2.6v9h2.6C1056.1,94.2,1057.5,92.6,1057.5,89.7z"/>
		<path id="XMLID_129_" d="M1075.8,99.7h-2.2V110h-6.2V79.2h8.9c6.1,0,9.7,3.8,9.7,10.3c0,4.2-1.5,7.3-4.3,8.9l5.8,11.7h-6.8
			L1075.8,99.7z M1073.6,93.7h2.6c2.2,0,3.4-1.5,3.4-4.3c0-2.8-1.2-4.3-3.4-4.3h-2.6V93.7z"/>
		<path id="XMLID_133_" d="M1089.6,100V89.2c0-6.6,3.7-10.5,10-10.5s10,3.9,10,10.5V100c0,6.6-3.7,10.5-10,10.5
			S1089.6,106.6,1089.6,100z M1103.1,100V89.2c0-2.9-1.2-4.4-3.5-4.4s-3.5,1.5-3.5,4.4V100c0,2.9,1.2,4.4,3.5,4.4
			S1103.1,102.9,1103.1,100z"/>
		<path id="XMLID_139_" d="M1109.3,110.5c3.4,0,5.3-1.1,5.3-5.2V79.2h6.2v26.1c0,7-3.9,11.4-11.5,11.4V110.5z"/>
		<path id="XMLID_141_" d="M1142.4,104.1v5.9h-16.3V79.2h15.9v5.9h-9.6v6.4h8.8v5.7h-8.8v6.8H1142.4z"/>
		<path id="XMLID_143_" d="M1145.8,100.6v-12c0-6.5,3.5-10,9.5-10c6.2,0,9.6,3.5,9.8,10h-6.2c-0.2-2.8-1.2-4-3.6-4c-1.9,0-3,1.2-3,4
			v12c0,2.6,1.1,3.9,3,3.9c2.4,0,3.5-1.1,3.7-3.9h6.2c-0.1,6.5-3.7,9.9-9.9,9.9C1149.3,110.5,1145.8,107.1,1145.8,100.6z"/>
		<path id="XMLID_145_" d="M1185.3,85.1h-6V110h-6.4V85.1h-6v-5.9h18.5V85.1z"/>
		<path id="XMLID_147_" d="M1194.5,79.2V110h-6.2V79.2H1194.5z"/>
		<path id="XMLID_149_" d="M1199.1,100V89.2c0-6.6,3.7-10.5,10-10.5s10,3.9,10,10.5V100c0,6.6-3.7,10.5-10,10.5
			S1199.1,106.6,1199.1,100z M1212.6,100V89.2c0-2.9-1.2-4.4-3.5-4.4s-3.5,1.5-3.5,4.4V100c0,2.9,1.2,4.4,3.5,4.4
			S1212.6,102.9,1212.6,100z"/>
		<path id="XMLID_152_" d="M1243.2,79.2V110h-6.2l-5.2-11.9l-2.8-7.5l-0.1,0.1c0.5,3.9,0.8,9.6,0.8,13.1v6.2h-6.2V79.2h6.2l5.9,13.4
			c0.7,1.9,1.5,4,2.2,5.9l0.1-0.1c-0.5-3.9-0.9-9.2-0.9-12v-7.1H1243.2z"/>
	</g>
	<g id="XMLID_19_">
		<path id="XMLID_20_" d="M177.1,106.3c0-9.8,11-14.2,11-19.3c0-1.3-0.7-2.7-2.4-2.7c-1.6,0-2.6,1.1-2.6,3.2h-5.6
			c0.3-5.9,3.2-8.8,8.2-8.8c5.9,0,8.4,4.1,8.4,8c0,7.9-10.6,13.1-10.6,17.8h10.8v5.5h-17.1V106.3z"/>
		<path id="XMLID_49_" d="M196.6,92.4c0-2,1.3-3.3,3.3-3.3c2,0,3.3,1.3,3.3,3.3c0,2-1.3,3.3-3.3,3.3C198,95.7,196.6,94.3,196.6,92.4
			z M196.6,107.2c0-2,1.3-3.3,3.3-3.3c2,0,3.3,1.3,3.3,3.3c0,2-1.3,3.3-3.3,3.3C198,110.5,196.6,109.2,196.6,107.2z"/>
		<path id="XMLID_52_" d="M215,79.2V110H209V87.2l-4.2,2.4v-6.4l6.4-4H215z"/>
		<path id="XMLID_54_" d="M235.5,79.2V110h-6.2V79.2H235.5z"/>
		<path id="XMLID_56_" d="M239,101h6.4c0,2.5,1.2,3.5,3.2,3.5c2.1,0,3.1-1.2,3.1-2.7c0-5.1-12.1-5.7-12.1-15.1c0-4.7,3.3-8.1,9-8.1
			s9.1,3.4,9.1,9.1h-6.4c0-2-0.9-3-2.7-3c-1.6,0-2.6,0.9-2.6,2.3c0,4.8,12.2,5.1,12.2,15c0,5.1-3.6,8.8-9.7,8.8
			C242.7,110.6,239,107.2,239,101z"/>
		<path id="XMLID_58_" d="M261.1,100V89.2c0-6.6,3.7-10.5,10-10.5c6.2,0,10,3.9,10,10.5V100c0,6.6-3.7,10.5-10,10.5
			C264.8,110.5,261.1,106.6,261.1,100z M274.6,100V89.2c0-2.9-1.2-4.4-3.5-4.4c-2.3,0-3.5,1.5-3.5,4.4V100c0,2.9,1.2,4.4,3.5,4.4
			C273.4,104.5,274.6,102.9,274.6,100z"/>
		<path id="XMLID_61_" d="M312.2,79.2V110H306v-7.6c0.2-3.7,0.3-7.5,0.5-11.2l-0.2-0.1l-2.8,8.1l-1.5,4.2h-6.2l-1.5-4.2l-2.8-8.1
			l-0.2,0.1c0.1,3.7,0.3,7.5,0.4,11.2v7.6h-6.1V79.2h6.3l4.8,11.7c0.6,1.5,1.7,4.2,2,5.4h0.2c0.4-1.1,1.4-3.8,2-5.4l4.8-11.7H312.2z
			"/>
		<path id="XMLID_63_" d="M333.9,104.1v5.9h-16.3V79.2h15.9v5.9h-9.6v6.4h8.8v5.7h-8.8v6.8H333.9z"/>
		<path id="XMLID_65_" d="M354.6,85.1h-6V110h-6.4V85.1h-6v-5.9h18.5V85.1z"/>
		<path id="XMLID_67_" d="M366,99.7h-2.2V110h-6.2V79.2h8.9c6.1,0,9.7,3.8,9.7,10.3c0,4.2-1.5,7.3-4.3,8.9l5.8,11.7h-6.8L366,99.7z
			 M363.8,93.7h2.6c2.2,0,3.4-1.5,3.4-4.3c0-2.8-1.2-4.3-3.4-4.3h-2.6V93.7z"/>
		<path id="XMLID_70_" d="M386.9,79.2V110h-6.2V79.2H386.9z"/>
		<path id="XMLID_72_" d="M391.5,100.6v-12c0-6.5,3.5-10,9.5-10c6.2,0,9.6,3.5,9.8,10h-6.2c-0.2-2.8-1.2-4-3.6-4c-1.9,0-3,1.2-3,4
			v12c0,2.6,1.1,3.9,3,3.9c2.4,0,3.5-1.1,3.7-3.9h6.2c-0.1,6.5-3.7,9.9-9.9,9.9C395,110.5,391.5,107.1,391.5,100.6z"/>
		<path id="XMLID_74_" d="M442.5,89.7c0,6.6-3.8,10.4-10.2,10.4h-2.7v9.9h-6.2V79.2h8.9C438.7,79.2,442.5,83.1,442.5,89.7z
			 M436.1,89.7c0-3-1.3-4.5-3.8-4.5h-2.6v9h2.6C434.7,94.2,436.1,92.6,436.1,89.7z"/>
		<path id="XMLID_77_" d="M454.4,99.7h-2.2V110h-6.2V79.2h8.9c6.1,0,9.7,3.8,9.7,10.3c0,4.2-1.5,7.3-4.3,8.9l5.8,11.7h-6.8
			L454.4,99.7z M452.2,93.7h2.6c2.2,0,3.4-1.5,3.4-4.3c0-2.8-1.2-4.3-3.4-4.3h-2.6V93.7z"/>
		<path id="XMLID_80_" d="M468.2,100V89.2c0-6.6,3.7-10.5,10-10.5c6.2,0,10,3.9,10,10.5V100c0,6.6-3.7,10.5-10,10.5
			C471.9,110.5,468.2,106.6,468.2,100z M481.7,100V89.2c0-2.9-1.2-4.4-3.5-4.4c-2.3,0-3.5,1.5-3.5,4.4V100c0,2.9,1.2,4.4,3.5,4.4
			C480.5,104.5,481.7,102.9,481.7,100z"/>
		<path id="XMLID_83_" d="M487.8,110.5c3.4,0,5.3-1.1,5.3-5.2V79.2h6.2v26.1c0,7-3.9,11.4-11.5,11.4V110.5z"/>
		<path id="XMLID_85_" d="M521,104.1v5.9h-16.3V79.2h15.9v5.9h-9.6v6.4h8.8v5.7h-8.8v6.8H521z"/>
		<path id="XMLID_87_" d="M524.4,100.6v-12c0-6.5,3.5-10,9.5-10c6.2,0,9.6,3.5,9.8,10h-6.2c-0.2-2.8-1.2-4-3.6-4c-1.9,0-3,1.2-3,4
			v12c0,2.6,1.1,3.9,3,3.9c2.4,0,3.5-1.1,3.7-3.9h6.2c-0.1,6.5-3.7,9.9-9.9,9.9C527.9,110.5,524.4,107.1,524.4,100.6z"/>
		<path id="XMLID_89_" d="M563.9,85.1h-6V110h-6.4V85.1h-6v-5.9h18.5V85.1z"/>
		<path id="XMLID_91_" d="M573.1,79.2V110h-6.2V79.2H573.1z"/>
		<path id="XMLID_93_" d="M577.6,100V89.2c0-6.6,3.7-10.5,10-10.5c6.2,0,10,3.9,10,10.5V100c0,6.6-3.7,10.5-10,10.5
			C581.4,110.5,577.6,106.6,577.6,100z M591.1,100V89.2c0-2.9-1.2-4.4-3.5-4.4c-2.3,0-3.5,1.5-3.5,4.4V100c0,2.9,1.2,4.4,3.5,4.4
			C590,104.5,591.1,102.9,591.1,100z"/>
		<path id="XMLID_96_" d="M621.8,79.2V110h-6.2l-5.2-11.9l-2.8-7.5l-0.1,0.1c0.5,3.9,0.8,9.6,0.8,13.1v6.2h-6.2V79.2h6.2l5.9,13.4
			c0.7,1.9,1.5,4,2.2,5.9l0.1-0.1c-0.5-3.9-0.9-9.2-0.9-12v-7.1H621.8z"/>
	</g>
	<g id="XMLID_22_">
		<path id="XMLID_23_" d="M551.2,498.8c0-9.8,11-14.2,11-19.3c0-1.3-0.7-2.7-2.4-2.7c-1.6,0-2.6,1.1-2.6,3.2h-5.6
			c0.3-5.9,3.2-8.8,8.2-8.8c5.9,0,8.4,4.1,8.4,8c0,7.9-10.6,13.1-10.6,17.8h10.8v5.5h-17.1V498.8z"/>
		<path id="XMLID_34_" d="M588.3,490.2v4.4c0,5.1-3.4,8.5-8.5,8.5c-5.1,0-8.5-3.4-8.5-8.5v-14.9c0-5.1,3.4-8.5,8.4-8.5
			c5,0,8.2,3.3,8.4,8.4h-6c-0.2-1.6-0.9-2.6-2.4-2.6s-2.4,0.8-2.4,2.6v3.9c0.9-0.7,2.2-1.1,3.5-1.1
			C585.3,482.3,588.3,485.7,588.3,490.2z M582.3,490.6c0-1.8-0.9-2.8-2.4-2.8c-1.6,0-2.5,1.1-2.5,2.8v3.9c0,1.7,0.9,2.7,2.5,2.7
			c1.5,0,2.5-1,2.5-2.7V490.6z"/>
		<path id="XMLID_39_" d="M591,499.7c0-2,1.3-3.3,3.3-3.3c2,0,3.3,1.3,3.3,3.3c0,2-1.3,3.3-3.3,3.3C592.3,503,591,501.7,591,499.7z"
			/>
		<path id="XMLID_41_" d="M617.7,490.4v3.2c0,6-3.4,9.4-8.4,9.4s-8.3-3.4-8.4-8.9h6.1c0.1,2.3,0.9,3.1,2.3,3.1
			c1.5,0,2.4-0.8,2.4-3.5v-3.4c0-2.7-0.8-3.5-2.1-3.5c-1.4,0-2.2,0.6-2.5,2.5h-5.9v-17.7h15.5v5.3h-9.5v5.1c0.9-0.5,2.1-0.8,3.2-0.8
			C614.7,481.2,617.7,484.5,617.7,490.4z"/>
		<path id="XMLID_43_" d="M635.3,471.7v4.4l-8.2,26.4H621l7.7-25.3h-10v-5.5H635.3z"/>
		<path id="XMLID_45_" d="M643,471.2c3.7,0,6,2.5,6,6.1c0,3.7-2.4,6.2-6,6.2c-3.7,0-6-2.5-6-6.2C636.9,473.6,639.3,471.2,643,471.2z
			 M643,479.6c1.3,0,2.1-0.9,2.1-2.3s-0.8-2.3-2.1-2.3c-1.3,0-2.1,0.9-2.1,2.3S641.7,479.6,643,479.6z"/>
	</g>
	<g id="XMLID_2_">
		<path id="XMLID_25_" d="M1160.4,491.3v1.9c0,6.4-2.4,9.8-8.5,9.8c-5.5,0-8.3-3.3-8.6-9h5.9c0.2,2.1,0.8,3.2,2.6,3.2
			c2.2,0,2.6-1.3,2.6-4.1v-1.5c0-2.9-1.1-3.7-3.1-3.7h-2.9V484l4.2-6.9h-8.2v-5.4h15.4v3.9l-4.8,7.8
			C1158.4,484,1160.4,487.6,1160.4,491.3z"/>
		<path id="XMLID_27_" d="M1163.9,493.6v-13c0-5.9,3.3-9.4,8.8-9.4c5.6,0,8.9,3.5,8.9,9.4v13c0,5.9-3.3,9.3-8.9,9.3
			C1167.2,502.9,1163.9,499.5,1163.9,493.6z M1175.9,493.6v-13c0-2.5-1.1-3.8-3.2-3.8s-3.1,1.3-3.1,3.8v13c0,2.5,1.1,3.7,3.1,3.7
			S1175.9,496.1,1175.9,493.6z"/>
		<path id="XMLID_30_" d="M1190.3,471.2c3.7,0,6,2.5,6,6.1c0,3.7-2.4,6.2-6,6.2s-6-2.5-6-6.2
			C1184.2,473.6,1186.6,471.2,1190.3,471.2z M1190.3,479.6c1.3,0,2.1-0.9,2.1-2.3s-0.8-2.3-2.1-2.3s-2.1,0.9-2.1,2.3
			S1189,479.6,1190.3,479.6z"/>
	</g>
</g>
<g id="Layer_6">
	<line id="XMLID_15_" class="st3" x1="401" y1="526.5" x2="694" y2="526.5"/>
	<line id="XMLID_16_" class="st3" x1="400.9" y1="527" x2="663" y2="396"/>
	<line id="XMLID_17_" class="st3" x1="1000" y1="526.5" x2="1293" y2="526.5"/>
	<line id="XMLID_18_" class="st3" x1="1000" y1="527" x2="1253.7" y2="380.5"/>
</g>
<g id="Layer_4" class="st4">
</g>
</svg>
